<mxfile host="65bd71144e" modified="2021-02-19T02:34:08.299Z" agent="5.0 (Macintosh; Intel Mac OS X 10_15_6) AppleWebKit/537.36 (KHTML, like Gecko) Code/1.53.2 Chrome/87.0.4280.141 Electron/11.2.1 Safari/537.36" etag="bNscThcA2xTkEs1Xxd0n" version="14.2.4" type="embed" pages="2">
    <diagram id="W14g2gFY5f37G5V5l5MT" name="第 1 页">
        <mxGraphModel dx="471" dy="535" grid="1" gridSize="14" guides="1" tooltips="1" connect="1" arrows="1" fold="1" page="1" pageScale="1" pageWidth="1200" pageHeight="1600" background="#ffffff" math="0" shadow="0">
            <root>
                <mxCell id="0"/>
                <mxCell id="1" parent="0"/>
                <mxCell id="7" value="1" style="ellipse;whiteSpace=wrap;html=1;aspect=fixed;fillColor=#60A917;strokeColor=#2D7600;fontColor=#ffffff;shadow=0;flipV=1;fontSize=40;" parent="1" vertex="1">
                    <mxGeometry x="280" y="440" width="80" height="80" as="geometry"/>
                </mxCell>
                <mxCell id="8" value="&lt;span style=&quot;font-family: &amp;#34;helvetica&amp;#34; ; font-size: 40px&quot;&gt;5&lt;/span&gt;" style="ellipse;whiteSpace=wrap;html=1;aspect=fixed;fillColor=#60A917;strokeColor=#2D7600;fontColor=#ffffff;shadow=0;flipV=1;" parent="1" vertex="1">
                    <mxGeometry x="920" y="440" width="80" height="80" as="geometry"/>
                </mxCell>
                <mxCell id="9" value="&lt;span style=&quot;font-family: &amp;#34;helvetica&amp;#34; ; font-size: 40px&quot;&gt;4&lt;/span&gt;" style="ellipse;whiteSpace=wrap;html=1;aspect=fixed;fillColor=#60A917;strokeColor=#2D7600;fontColor=#ffffff;shadow=0;flipV=1;" parent="1" vertex="1">
                    <mxGeometry x="758" y="440" width="80" height="80" as="geometry"/>
                </mxCell>
                <mxCell id="10" value="&lt;span style=&quot;font-family: &amp;#34;helvetica&amp;#34; ; font-size: 40px&quot;&gt;3&lt;/span&gt;" style="ellipse;whiteSpace=wrap;html=1;aspect=fixed;fillColor=#60A917;strokeColor=#2D7600;fontColor=#ffffff;shadow=0;flipV=1;" parent="1" vertex="1">
                    <mxGeometry x="605" y="443" width="80" height="80" as="geometry"/>
                </mxCell>
                <mxCell id="11" value="&lt;span style=&quot;color: rgb(255 , 255 , 255) ; font-family: &amp;#34;helvetica&amp;#34; ; font-size: 40px ; font-style: normal ; font-weight: 400 ; letter-spacing: normal ; text-align: center ; text-indent: 0px ; text-transform: none ; word-spacing: 0px ; display: inline ; float: none&quot;&gt;2&lt;/span&gt;" style="ellipse;whiteSpace=wrap;html=1;aspect=fixed;fillColor=#60A917;strokeColor=#2D7600;fontColor=#ffffff;shadow=0;flipV=1;" parent="1" vertex="1">
                    <mxGeometry x="440" y="440" width="80" height="80" as="geometry"/>
                </mxCell>
                <mxCell id="12" value="&lt;span style=&quot;font-family: &amp;#34;helvetica&amp;#34; ; font-size: 40px&quot;&gt;6&lt;/span&gt;" style="ellipse;whiteSpace=wrap;html=1;aspect=fixed;strokeColor=#2D7600;fontColor=#ffffff;shadow=0;flipV=1;fillColor=#A6A6A6;" parent="1" vertex="1">
                    <mxGeometry x="280" y="600" width="80" height="80" as="geometry"/>
                </mxCell>
                <mxCell id="13" value="&lt;span style=&quot;font-family: &amp;#34;helvetica&amp;#34; ; font-size: 40px&quot;&gt;2&lt;/span&gt;" style="ellipse;whiteSpace=wrap;html=1;aspect=fixed;strokeColor=#2D7600;fontColor=#ffffff;shadow=0;flipV=1;fillColor=#A6A6A6;" parent="1" vertex="1">
                    <mxGeometry x="920" y="600" width="80" height="80" as="geometry"/>
                </mxCell>
                <mxCell id="14" value="&lt;span style=&quot;font-family: &amp;#34;helvetica&amp;#34; ; font-size: 40px&quot;&gt;7&lt;/span&gt;" style="ellipse;whiteSpace=wrap;html=1;aspect=fixed;strokeColor=#2D7600;fontColor=#ffffff;shadow=0;flipV=1;fillColor=#A6A6A6;" parent="1" vertex="1">
                    <mxGeometry x="758" y="600" width="80" height="80" as="geometry"/>
                </mxCell>
                <mxCell id="15" value="&lt;span style=&quot;font-family: &amp;#34;helvetica&amp;#34; ; font-size: 40px&quot;&gt;5&lt;/span&gt;" style="ellipse;whiteSpace=wrap;html=1;aspect=fixed;strokeColor=#2D7600;fontColor=#ffffff;shadow=0;flipV=1;fillColor=#A6A6A6;" parent="1" vertex="1">
                    <mxGeometry x="605" y="603" width="80" height="80" as="geometry"/>
                </mxCell>
                <mxCell id="16" value="&lt;span style=&quot;font-family: &amp;#34;helvetica&amp;#34; ; font-size: 40px&quot;&gt;3&lt;/span&gt;" style="ellipse;whiteSpace=wrap;html=1;aspect=fixed;strokeColor=#2D7600;fontColor=#ffffff;shadow=0;flipV=1;fillColor=#A6A6A6;" parent="1" vertex="1">
                    <mxGeometry x="440" y="600" width="80" height="80" as="geometry"/>
                </mxCell>
                <mxCell id="18" value="old" style="text;html=1;strokeColor=none;fillColor=none;align=center;verticalAlign=middle;whiteSpace=wrap;rounded=0;shadow=0;fontColor=#000000;fontSize=24;" parent="1" vertex="1">
                    <mxGeometry x="100" y="473" width="40" height="17" as="geometry"/>
                </mxCell>
                <mxCell id="19" value="new&lt;br&gt;" style="text;html=1;strokeColor=none;fillColor=none;align=center;verticalAlign=middle;whiteSpace=wrap;rounded=0;shadow=0;fontColor=#000000;fontSize=24;" parent="1" vertex="1">
                    <mxGeometry x="100" y="630" width="40" height="20" as="geometry"/>
                </mxCell>
                <mxCell id="21" value="&lt;font style=&quot;font-size: 34px&quot;&gt;S&lt;/font&gt;" style="html=1;shadow=0;dashed=0;align=center;verticalAlign=middle;shape=mxgraph.arrows2.arrow;dy=0.6;dx=40;direction=south;notch=0;fillColor=#60a917;strokeColor=#2D7600;fontColor=#ffffff;" parent="1" vertex="1">
                    <mxGeometry x="285" y="300" width="70" height="100" as="geometry"/>
                </mxCell>
                <mxCell id="22" value="&lt;span style=&quot;font-size: 34px&quot;&gt;E&lt;/span&gt;" style="html=1;shadow=0;dashed=0;align=center;verticalAlign=middle;shape=mxgraph.arrows2.arrow;dy=0.6;dx=40;direction=south;notch=0;fillColor=#60a917;strokeColor=#2D7600;fontColor=#ffffff;" parent="1" vertex="1">
                    <mxGeometry x="925" y="300" width="70" height="100" as="geometry"/>
                </mxCell>
                <mxCell id="23" value="&lt;span style=&quot;color: rgb(255 , 255 , 255) ; font-size: 34px&quot;&gt;S&lt;/span&gt;" style="html=1;shadow=0;dashed=0;align=center;verticalAlign=middle;shape=mxgraph.arrows2.arrow;dy=0.6;dx=40;direction=north;notch=0;fillColor=#999999;" parent="1" vertex="1">
                    <mxGeometry x="290" y="720" width="70" height="100" as="geometry"/>
                </mxCell>
                <mxCell id="24" value="&lt;font color=&quot;#ffffff&quot;&gt;&lt;span style=&quot;font-size: 34px&quot;&gt;E&lt;/span&gt;&lt;/font&gt;" style="html=1;shadow=0;dashed=0;align=center;verticalAlign=middle;shape=mxgraph.arrows2.arrow;dy=0.6;dx=40;direction=north;notch=0;fillColor=#999999;" parent="1" vertex="1">
                    <mxGeometry x="925" y="710" width="70" height="100" as="geometry"/>
                </mxCell>
                <mxCell id="25" value="1" style="ellipse;whiteSpace=wrap;html=1;aspect=fixed;strokeColor=#2D7600;fontColor=#ffffff;shadow=0;flipV=1;fontSize=40;fillColor=#A97C22;" parent="1" vertex="1">
                    <mxGeometry x="275" y="140" width="80" height="80" as="geometry"/>
                </mxCell>
                <mxCell id="26" value="&lt;span style=&quot;font-family: &amp;#34;helvetica&amp;#34; ; font-size: 40px&quot;&gt;5&lt;/span&gt;" style="ellipse;whiteSpace=wrap;html=1;aspect=fixed;strokeColor=#2D7600;fontColor=#ffffff;shadow=0;flipV=1;fillColor=#A97C22;" parent="1" vertex="1">
                    <mxGeometry x="915" y="140" width="80" height="80" as="geometry"/>
                </mxCell>
                <mxCell id="27" value="&lt;span style=&quot;font-family: &amp;#34;helvetica&amp;#34; ; font-size: 40px&quot;&gt;4&lt;/span&gt;" style="ellipse;whiteSpace=wrap;html=1;aspect=fixed;strokeColor=#2D7600;fontColor=#ffffff;shadow=0;flipV=1;fillColor=#A97C22;" parent="1" vertex="1">
                    <mxGeometry x="753" y="140" width="80" height="80" as="geometry"/>
                </mxCell>
                <mxCell id="28" value="&lt;span style=&quot;font-family: &amp;#34;helvetica&amp;#34; ; font-size: 40px&quot;&gt;3&lt;/span&gt;" style="ellipse;whiteSpace=wrap;html=1;aspect=fixed;strokeColor=#2D7600;fontColor=#ffffff;shadow=0;flipV=1;fillColor=#A97C22;" parent="1" vertex="1">
                    <mxGeometry x="600" y="143" width="80" height="80" as="geometry"/>
                </mxCell>
                <mxCell id="29" value="&lt;span style=&quot;color: rgb(255 , 255 , 255) ; font-family: &amp;#34;helvetica&amp;#34; ; font-size: 40px ; font-style: normal ; font-weight: 400 ; letter-spacing: normal ; text-align: center ; text-indent: 0px ; text-transform: none ; word-spacing: 0px ; display: inline ; float: none&quot;&gt;2&lt;/span&gt;" style="ellipse;whiteSpace=wrap;html=1;aspect=fixed;strokeColor=#2D7600;fontColor=#ffffff;shadow=0;flipV=1;fillColor=#A97C22;" parent="1" vertex="1">
                    <mxGeometry x="435" y="140" width="80" height="80" as="geometry"/>
                </mxCell>
                <mxCell id="31" value="dom" style="text;html=1;strokeColor=none;fillColor=none;align=center;verticalAlign=middle;whiteSpace=wrap;rounded=0;shadow=0;fontColor=#000000;fontSize=24;" parent="1" vertex="1">
                    <mxGeometry x="110" y="173" width="40" height="20" as="geometry"/>
                </mxCell>
            </root>
        </mxGraphModel>
    </diagram>
    <diagram id="yG1ab4v1WpOVff3sql0q" name="第 2 页">
        <mxGraphModel dx="471" dy="535" grid="1" gridSize="10" guides="1" tooltips="1" connect="1" arrows="1" fold="1" page="1" pageScale="1" pageWidth="1200" pageHeight="1600" background="#ffffff" math="0" shadow="0">
            <root>
                <mxCell id="5mYWdA_ucG3byOZyyoHX-0"/>
                <mxCell id="5mYWdA_ucG3byOZyyoHX-1" parent="5mYWdA_ucG3byOZyyoHX-0"/>
                <mxCell id="7vDiUJqge57_tWOELiIJ-0" value="1" style="ellipse;whiteSpace=wrap;html=1;aspect=fixed;fillColor=#60A917;strokeColor=#2D7600;fontColor=#ffffff;shadow=0;flipV=1;fontSize=40;" parent="5mYWdA_ucG3byOZyyoHX-1" vertex="1">
                    <mxGeometry x="280" y="440" width="80" height="80" as="geometry"/>
                </mxCell>
                <mxCell id="7vDiUJqge57_tWOELiIJ-1" value="&lt;span style=&quot;font-family: &amp;#34;helvetica&amp;#34; ; font-size: 40px&quot;&gt;5&lt;/span&gt;" style="ellipse;whiteSpace=wrap;html=1;aspect=fixed;fillColor=#60A917;strokeColor=#2D7600;fontColor=#ffffff;shadow=0;flipV=1;" parent="5mYWdA_ucG3byOZyyoHX-1" vertex="1">
                    <mxGeometry x="920" y="440" width="80" height="80" as="geometry"/>
                </mxCell>
                <mxCell id="7vDiUJqge57_tWOELiIJ-2" value="&lt;span style=&quot;font-family: &amp;#34;helvetica&amp;#34; ; font-size: 40px&quot;&gt;4&lt;/span&gt;" style="ellipse;whiteSpace=wrap;html=1;aspect=fixed;fillColor=#60A917;strokeColor=#2D7600;fontColor=#ffffff;shadow=0;flipV=1;" parent="5mYWdA_ucG3byOZyyoHX-1" vertex="1">
                    <mxGeometry x="758" y="440" width="80" height="80" as="geometry"/>
                </mxCell>
                <mxCell id="7vDiUJqge57_tWOELiIJ-3" value="&lt;span style=&quot;font-family: &amp;#34;helvetica&amp;#34; ; font-size: 40px&quot;&gt;und&lt;/span&gt;" style="ellipse;whiteSpace=wrap;html=1;aspect=fixed;fillColor=#60A917;strokeColor=#2D7600;fontColor=#ffffff;shadow=0;flipV=1;" parent="5mYWdA_ucG3byOZyyoHX-1" vertex="1">
                    <mxGeometry x="605" y="440.0000000000001" width="80" height="80" as="geometry"/>
                </mxCell>
                <mxCell id="7vDiUJqge57_tWOELiIJ-4" value="&lt;span style=&quot;color: rgb(255 , 255 , 255) ; font-family: &amp;#34;helvetica&amp;#34; ; font-size: 40px ; font-style: normal ; font-weight: 400 ; letter-spacing: normal ; text-align: center ; text-indent: 0px ; text-transform: none ; word-spacing: 0px ; display: inline ; float: none&quot;&gt;und&lt;/span&gt;" style="ellipse;whiteSpace=wrap;html=1;aspect=fixed;fillColor=#60A917;strokeColor=#2D7600;fontColor=#ffffff;shadow=0;flipV=1;" parent="5mYWdA_ucG3byOZyyoHX-1" vertex="1">
                    <mxGeometry x="440" y="440" width="80" height="80" as="geometry"/>
                </mxCell>
                <mxCell id="7vDiUJqge57_tWOELiIJ-5" value="&lt;span style=&quot;font-family: &amp;#34;helvetica&amp;#34; ; font-size: 40px&quot;&gt;6&lt;/span&gt;" style="ellipse;whiteSpace=wrap;html=1;aspect=fixed;strokeColor=#2D7600;fontColor=#ffffff;shadow=0;flipV=1;fillColor=#A6A6A6;" parent="5mYWdA_ucG3byOZyyoHX-1" vertex="1">
                    <mxGeometry x="280" y="600" width="80" height="80" as="geometry"/>
                </mxCell>
                <mxCell id="7vDiUJqge57_tWOELiIJ-6" value="&lt;span style=&quot;font-family: &amp;#34;helvetica&amp;#34; ; font-size: 40px&quot;&gt;2&lt;/span&gt;" style="ellipse;whiteSpace=wrap;html=1;aspect=fixed;strokeColor=#2D7600;fontColor=#ffffff;shadow=0;flipV=1;fillColor=#A6A6A6;" parent="5mYWdA_ucG3byOZyyoHX-1" vertex="1">
                    <mxGeometry x="920" y="600" width="80" height="80" as="geometry"/>
                </mxCell>
                <mxCell id="7vDiUJqge57_tWOELiIJ-7" value="&lt;span style=&quot;font-family: &amp;#34;helvetica&amp;#34; ; font-size: 40px&quot;&gt;7&lt;/span&gt;" style="ellipse;whiteSpace=wrap;html=1;aspect=fixed;strokeColor=#2D7600;fontColor=#ffffff;shadow=0;flipV=1;fillColor=#A6A6A6;" parent="5mYWdA_ucG3byOZyyoHX-1" vertex="1">
                    <mxGeometry x="758" y="600" width="80" height="80" as="geometry"/>
                </mxCell>
                <mxCell id="7vDiUJqge57_tWOELiIJ-8" value="&lt;span style=&quot;font-family: &amp;#34;helvetica&amp;#34; ; font-size: 40px&quot;&gt;5&lt;/span&gt;" style="ellipse;whiteSpace=wrap;html=1;aspect=fixed;strokeColor=#2D7600;fontColor=#ffffff;shadow=0;flipV=1;fillColor=#A6A6A6;" parent="5mYWdA_ucG3byOZyyoHX-1" vertex="1">
                    <mxGeometry x="605" y="600.0000000000001" width="80" height="80" as="geometry"/>
                </mxCell>
                <mxCell id="7vDiUJqge57_tWOELiIJ-9" value="&lt;span style=&quot;font-family: &amp;#34;helvetica&amp;#34; ; font-size: 40px&quot;&gt;3&lt;/span&gt;" style="ellipse;whiteSpace=wrap;html=1;aspect=fixed;strokeColor=#2D7600;fontColor=#ffffff;shadow=0;flipV=1;fillColor=#A6A6A6;" parent="5mYWdA_ucG3byOZyyoHX-1" vertex="1">
                    <mxGeometry x="440" y="600" width="80" height="80" as="geometry"/>
                </mxCell>
                <mxCell id="7vDiUJqge57_tWOELiIJ-10" value="old" style="text;html=1;strokeColor=none;fillColor=none;align=center;verticalAlign=middle;whiteSpace=wrap;rounded=0;shadow=0;fontColor=#000000;fontSize=24;" parent="5mYWdA_ucG3byOZyyoHX-1" vertex="1">
                    <mxGeometry x="100" y="471.5000000000001" width="40" height="17" as="geometry"/>
                </mxCell>
                <mxCell id="7vDiUJqge57_tWOELiIJ-11" value="new&lt;br&gt;" style="text;html=1;strokeColor=none;fillColor=none;align=center;verticalAlign=middle;whiteSpace=wrap;rounded=0;shadow=0;fontColor=#000000;fontSize=24;" parent="5mYWdA_ucG3byOZyyoHX-1" vertex="1">
                    <mxGeometry x="100" y="630" width="40" height="20" as="geometry"/>
                </mxCell>
                <mxCell id="7vDiUJqge57_tWOELiIJ-12" value="&lt;font style=&quot;font-size: 34px&quot;&gt;S&lt;/font&gt;" style="html=1;shadow=0;dashed=0;align=center;verticalAlign=middle;shape=mxgraph.arrows2.arrow;dy=0.6;dx=40;direction=south;notch=0;fillColor=#60a917;strokeColor=#2D7600;fontColor=#ffffff;" parent="5mYWdA_ucG3byOZyyoHX-1" vertex="1">
                    <mxGeometry x="285" y="300" width="70" height="100" as="geometry"/>
                </mxCell>
                <mxCell id="7vDiUJqge57_tWOELiIJ-13" value="&lt;span style=&quot;font-size: 34px&quot;&gt;E&lt;/span&gt;" style="html=1;shadow=0;dashed=0;align=center;verticalAlign=middle;shape=mxgraph.arrows2.arrow;dy=0.6;dx=40;direction=south;notch=0;fillColor=#60a917;strokeColor=#2D7600;fontColor=#ffffff;" parent="5mYWdA_ucG3byOZyyoHX-1" vertex="1">
                    <mxGeometry x="763" y="280" width="70" height="100" as="geometry"/>
                </mxCell>
                <mxCell id="7vDiUJqge57_tWOELiIJ-14" value="&lt;span style=&quot;color: rgb(255 , 255 , 255) ; font-size: 34px&quot;&gt;S&lt;/span&gt;" style="html=1;shadow=0;dashed=0;align=center;verticalAlign=middle;shape=mxgraph.arrows2.arrow;dy=0.6;dx=40;direction=north;notch=0;fillColor=#999999;" parent="5mYWdA_ucG3byOZyyoHX-1" vertex="1">
                    <mxGeometry x="1040" y="810" width="70" height="100" as="geometry"/>
                </mxCell>
                <mxCell id="7vDiUJqge57_tWOELiIJ-15" value="&lt;font color=&quot;#ffffff&quot;&gt;&lt;span style=&quot;font-size: 34px&quot;&gt;E&lt;/span&gt;&lt;/font&gt;" style="html=1;shadow=0;dashed=0;align=center;verticalAlign=middle;shape=mxgraph.arrows2.arrow;dy=0.6;dx=40;direction=north;notch=0;fillColor=#999999;" parent="5mYWdA_ucG3byOZyyoHX-1" vertex="1">
                    <mxGeometry x="925" y="710" width="70" height="100" as="geometry"/>
                </mxCell>
                <mxCell id="7vDiUJqge57_tWOELiIJ-16" value="1" style="ellipse;whiteSpace=wrap;html=1;aspect=fixed;fontColor=#ffffff;shadow=0;flipV=1;fontSize=40;fillColor=#A97C22;dashed=1;strokeColor=#CC0000;strokeWidth=3;" parent="5mYWdA_ucG3byOZyyoHX-1" vertex="1">
                    <mxGeometry x="913" y="143" width="80" height="80" as="geometry"/>
                </mxCell>
                <mxCell id="7vDiUJqge57_tWOELiIJ-17" value="&lt;span style=&quot;font-family: &amp;#34;helvetica&amp;#34; ; font-size: 40px&quot;&gt;5&lt;/span&gt;" style="ellipse;whiteSpace=wrap;html=1;aspect=fixed;strokeColor=#2D7600;fontColor=#ffffff;shadow=0;flipV=1;fillColor=#A97C22;flipH=1;" parent="5mYWdA_ucG3byOZyyoHX-1" vertex="1">
                    <mxGeometry x="473" y="142.99999999999997" width="80" height="80" as="geometry"/>
                </mxCell>
                <mxCell id="7vDiUJqge57_tWOELiIJ-18" value="&lt;span style=&quot;font-family: &amp;#34;helvetica&amp;#34; ; font-size: 40px&quot;&gt;4&lt;/span&gt;" style="ellipse;whiteSpace=wrap;html=1;aspect=fixed;fontColor=#ffffff;shadow=0;flipV=1;fillColor=#A97C22;dashed=1;strokeColor=#CC0000;strokeWidth=3;" parent="5mYWdA_ucG3byOZyyoHX-1" vertex="1">
                    <mxGeometry x="1060" y="143" width="80" height="80" as="geometry"/>
                </mxCell>
                <mxCell id="7vDiUJqge57_tWOELiIJ-19" value="&lt;span style=&quot;font-family: &amp;#34;helvetica&amp;#34; ; font-size: 40px&quot;&gt;3&lt;/span&gt;" style="ellipse;whiteSpace=wrap;html=1;aspect=fixed;strokeColor=#2D7600;fontColor=#ffffff;shadow=0;flipV=0;fillColor=#A97C22;flipH=1;" parent="5mYWdA_ucG3byOZyyoHX-1" vertex="1">
                    <mxGeometry x="327" y="143.00000000000003" width="80" height="80" as="geometry"/>
                </mxCell>
                <mxCell id="7vDiUJqge57_tWOELiIJ-20" value="&lt;span style=&quot;color: rgb(255 , 255 , 255) ; font-family: &amp;#34;helvetica&amp;#34; ; font-size: 40px ; font-style: normal ; font-weight: 400 ; letter-spacing: normal ; text-align: center ; text-indent: 0px ; text-transform: none ; word-spacing: 0px ; display: inline ; float: none&quot;&gt;2&lt;/span&gt;" style="ellipse;whiteSpace=wrap;html=1;aspect=fixed;strokeColor=#2D7600;fontColor=#ffffff;shadow=0;flipV=1;fillColor=#A97C22;flipH=1;" parent="5mYWdA_ucG3byOZyyoHX-1" vertex="1">
                    <mxGeometry x="767" y="143.00000000000003" width="80" height="80" as="geometry"/>
                </mxCell>
                <mxCell id="7vDiUJqge57_tWOELiIJ-21" value="dom" style="text;html=1;strokeColor=none;fillColor=none;align=center;verticalAlign=middle;whiteSpace=wrap;rounded=0;shadow=0;fontColor=#000000;fontSize=24;" parent="5mYWdA_ucG3byOZyyoHX-1" vertex="1">
                    <mxGeometry x="100" y="173" width="40" height="20" as="geometry"/>
                </mxCell>
                <mxCell id="7vDiUJqge57_tWOELiIJ-22" value="&lt;span style=&quot;font-family: &amp;#34;helvetica&amp;#34; ; font-size: 40px&quot;&gt;6&lt;/span&gt;" style="ellipse;whiteSpace=wrap;html=1;aspect=fixed;strokeColor=#2D7600;fontColor=#ffffff;shadow=0;flipV=1;fillColor=#A6A6A6;flipH=1;" parent="5mYWdA_ucG3byOZyyoHX-1" vertex="1">
                    <mxGeometry x="180" y="142.99999999999997" width="80" height="80" as="geometry"/>
                </mxCell>
                <mxCell id="7vDiUJqge57_tWOELiIJ-23" value="&lt;span style=&quot;font-family: &amp;#34;helvetica&amp;#34; ; font-size: 40px&quot;&gt;7&lt;/span&gt;" style="ellipse;whiteSpace=wrap;html=1;aspect=fixed;strokeColor=#2D7600;fontColor=#ffffff;shadow=0;flipV=1;fillColor=#A6A6A6;flipH=1;" parent="5mYWdA_ucG3byOZyyoHX-1" vertex="1">
                    <mxGeometry x="620" y="143" width="80" height="80" as="geometry"/>
                </mxCell>
                <mxCell id="9iF1gr60AJGZ464ZwkKy-0" style="edgeStyle=orthogonalEdgeStyle;rounded=0;orthogonalLoop=1;jettySize=auto;html=1;exitX=0;exitY=0;exitDx=30;exitDy=21;exitPerimeter=0;" parent="5mYWdA_ucG3byOZyyoHX-1" source="7vDiUJqge57_tWOELiIJ-14" target="7vDiUJqge57_tWOELiIJ-14" edge="1">
                    <mxGeometry relative="1" as="geometry"/>
                </mxCell>
            </root>
        </mxGraphModel>
    </diagram>
</mxfile>